<?xml version="1.0" encoding="utf-8"?>
<!-- Generator: Adobe Illustrator 27.2.0, SVG Export Plug-In . SVG Version: 6.00 Build 0)  -->
<svg version="1.1" id="Layer_1" xmlns="http://www.w3.org/2000/svg" xmlns:xlink="http://www.w3.org/1999/xlink" x="0px" y="0px"
	 viewBox="0 0 595.28 841.89" style="enable-background:new 0 0 595.28 841.89;" xml:space="preserve">
<style type="text/css">
	.st0{fill:#60CAE5;}
	.st1{fill:#FFFFFF;stroke:#FCF38F;stroke-width:20;stroke-miterlimit:10;}
	.st2{fill:none;stroke:#FCF38F;stroke-width:20;stroke-miterlimit:10;}
	.st3{fill:#77C485;}
</style>
<g>
	<path class="st0" d="M195.12,379.6c2.2-2.2,3.4-1.8,3.8,0.8c0.6,4.2-1.8,9.4-8.2,17.4c-10,12.6-28.2,31.8-47.4,62.2c-1,1.6-2,3-4,2
		c-7.8-3.8-10.6-7.8-10-18.4c0.8-14,6.2-42.6,13-63.4c0.8-2.2,2.4-3,4-1.6c6.6,5.6,7.6,13,4.8,25.2c-3.6,15.4-7.6,26.6-10.4,48.4
		C154.92,428.8,181.52,393.6,195.12,379.6z"/>
	<path class="st0" d="M255.12,380.8c1.8-2.6,3.4-3,4.8-1.2c3,3.6,4.6,12.2-0.2,22.2c-4.4,9-14.4,24-19.2,34.6
		c-5,11.2-5.2,19.8,1.6,19.4c8.2-0.4,19.2-14,26.2-27.8c1-1.8,2.4-2,3.2-0.2c0.8,1.8,0.8,6.8-1.8,12.4c-5.2,11-17.8,22-28.8,21.4
		c-10.8-0.6-16.4-7-16.4-16.4c-6.4,8.2-15.4,15.6-25,15.6c-18.6,0-22.4-25.4-5.8-49.6c16.2-23.6,32-32.6,42-32.6
		c8.6,0,12.6,6.6,12.2,14.4C250.52,388.2,252.92,384,255.12,380.8z M239.12,389c-6.4-0.6-21,12.4-32,30.2
		c-10.6,17.2-13.2,34.8-5.4,35c8.2,0.2,18.6-12.6,28.8-30.2C243.12,402,244.92,389.6,239.12,389z"/>
	<path class="st0" d="M324.92,391.8c4.2,8.4-3.8,19-7.8,29.8c-0.8,2.4-1.6,3-4.2,1.6c-4.8-2.4-7.6-8.4-4.8-17.4
		c2.2-7.2,8.2-15.8,5.4-18c-3.4-2.8-18.4,10-27.4,28.2c-11,22.6-6.8,39.2,5,39.4c16.8,0.2,31.2-15.8,39.4-28.4
		c1-1.6,2.8-1.8,3.6,0.2c0.6,1.6-0.2,6.6-3.6,12c-7.6,11.8-23.4,21.6-38.6,21.8c-25.4,0.4-34-24.4-21-50.2c12.8-25.2,33-36,43-30
		C319.32,384,322.52,387.2,324.92,391.8z"/>
	<path class="st0" d="M398.72,380.8c1.8-2.6,3.4-3,4.8-1.2c3,3.6,4.6,12.2-0.2,22.2c-4.4,9-14.4,24-19.2,34.6
		c-5,11.2-5.2,19.8,1.6,19.4c8.2-0.4,19.2-14,26.2-27.8c1-1.8,2.4-2,3.2-0.2c0.8,1.8,0.8,6.8-1.8,12.4c-5.2,11-17.8,22-28.8,21.4
		c-10.8-0.6-16.4-7-16.4-16.4c-6.4,8.2-15.4,15.6-25,15.6c-18.6,0-22.4-25.4-5.8-49.6c16.2-23.6,32-32.6,42-32.6
		c8.6,0,12.6,6.6,12.2,14.4C394.12,388.2,396.52,384,398.72,380.8z M382.72,389c-6.4-0.6-21,12.4-32,30.2
		c-10.6,17.2-13.2,34.8-5.4,35c8.2,0.2,18.6-12.6,28.8-30.2C386.72,402,388.52,389.6,382.72,389z"/>
	<path class="st0" d="M446.92,465.4c-11.2,26.8-25.4,59-42,65.4c-3.8,1.4-7.6,1.4-11.4-4.2c-4-6-8-13-4-24.8c6-18,23-30,42.8-37.8
		c2-4.6,4-9.6,6.2-14.4c-6.2,6.4-13.8,11.6-21.8,11c-14.4-1.2-14.8-15.8-10.2-29c4.4-12.8,14.2-32.6,27.2-50.6c1.6-2.2,3.6-2,5,0
		c4.8,6.4,3.6,14.8-3.8,26.6c-7.2,11.6-11.6,19.8-15.4,29.2c-4,9.8-3.6,16.8,1,17.2c7.8,0.6,17.8-12.2,28-29.6
		c8.6-14.8,17.2-32.8,24.2-43c1.8-2.6,3.2-3,5-1.4c2.8,3.6,4.4,12.2-0.8,22.4c-6,11.6-18.2,35.6-26.6,55
		c15.6-8.4,27.4-19.8,35.4-30.8c1-1.4,2.8-1.6,3.2,0.4c0.4,1.8-0.2,6.4-3.6,11.6C477.52,451,463.52,458.6,446.92,465.4z
		 M397.52,519.8c2.6,3.8,19-18,31.4-47.4C402.92,487.4,393.92,514.8,397.52,519.8z"/>
</g>
<path class="st1" d="M152.64,420.94"/>
<path class="st2" d="M388.39,534.04c-24.84,19.96-56.4,31.91-90.75,31.91c-63.78,0-117.94-41.18-137.35-98.4"/>
<path class="st1" d="M442.64,420.94"/>
<path class="st1" d="M436.14,377.9"/>
<path class="st2" d="M387.23,306.93c20.24,15.93,36.14,37.13,45.62,61.53"/>
<path class="st1" d="M376.68,299.36"/>
<path class="st1" d="M297.64,275.94"/>
<path class="st2" d="M162.19,369.07c19.42-50.68,66.47-87.68,122.72-92.58"/>
<g>
	<g id="XMLID_1372_">
		<g id="XMLID_1403_">
			<path class="st3" d="M355.67,201.4c0,0,28.43,11.82,28.41,43.44l-8.19-15.93c0,0,11.31,22.32-2.02,41.11
				c0,0,2.71-14.68,0.96-20.31c0,0-3.87,25.09-32.32,31.22c0,0,12.66-15.12,15.95-26.15c0,0-10.75,11.68-19.5,13.86
				c0,0,20.06-12.74,19.92-38.06l-6.05,6.73C352.84,237.3,363.82,217.57,355.67,201.4z"/>
		</g>
		<g id="XMLID_1400_">
			<path class="st3" d="M355.67,201.4c0,0,25.33-17.49,51.9-0.35l-17.83-1.74c0,0,24.89,2.58,33.47,23.97
				c0,0-10.87-10.23-16.55-11.81c0,0,18.99,16.84,8.74,44.08c0,0-5.86-18.83-13.34-27.57c0,0,3.99,15.36,1.08,23.9
				c0,0,0.15-23.76-21.2-37.36l2.38,8.73C384.32,223.22,373.68,203.31,355.67,201.4z"/>
		</g>
		<g id="XMLID_1397_">
			<path class="st3" d="M355.37,199.96c0,0-0.15-26.89,25.3-37.62l-10.03,12c0,0,14.12-16.69,33.77-12.34c0,0-12.73,2.81-16.67,6.13
				c0,0,21.5-5.41,36.1,15.4c0,0-16.47-5.05-26.46-3.95c0,0,13.05,4.69,17.78,10.99c0,0-17.07-11.81-37.4-3.1l7.47,2.58
				C385.22,190.04,365.61,187.91,355.37,199.96z"/>
		</g>
		<g id="XMLID_1394_">
			<path class="st3" d="M349.44,196.76c0,0-23.04-20.42-51.48-6.61l17.91,0.42c0,0-25.02-0.44-36.11,19.76
				c0,0,12.03-8.84,17.85-9.73c0,0-20.88,14.43-13.99,42.71c0,0,8.08-17.98,16.56-25.76c0,0-5.81,14.77-3.96,23.6
				c0,0,2.71-23.61,25.55-34.54l-3.41,8.38C318.37,214.98,331.34,196.49,349.44,196.76z"/>
		</g>
		<g id="XMLID_1391_">
			<path class="st3" d="M349.44,196.76c0,0,4.69-30.43-22.33-46.86l9.35,15.28c0,0-13.19-21.27-36.17-19.65
				c0,0,13.95,5.32,17.85,9.74c0,0-23.44-9.74-43.48,11.37c0,0,19.5-2.95,30.63-0.03c0,0-15.57,3.11-21.98,9.45
				c0,0,21.31-10.51,42.87,2.78l-8.89,1.67C317.3,180.51,339.86,181.39,349.44,196.76z"/>
		</g>
		<g id="XMLID_1388_">
			<path class="st3" d="M350.87,196.41c0,0,24.26-11.6,22.81-39.18l-6.42,14.27c0,0,8.85-19.98-3.63-35.77
				c0,0,3.03,12.68,1.76,17.67c0,0-4.51-21.71-29.61-25.77c0,0,11.72,12.61,15.1,22.08c0,0-9.91-9.7-17.64-11.2
				c0,0,18.07,10.2,19.1,32.3l-5.58-5.59C346.77,165.23,357.24,181.94,350.87,196.41z"/>
		</g>
		<g id="XMLID_1385_">
			
				<ellipse transform="matrix(0.0216 -0.9998 0.9998 0.0216 146.6822 539.8058)" class="st3" cx="349.13" cy="194.96" rx="8.25" ry="8.25"/>
		</g>
		<g id="XMLID_1382_">
			
				<ellipse transform="matrix(0.1814 -0.9834 0.9834 0.1814 93.1405 523.0832)" class="st3" cx="360.78" cy="205.59" rx="10.01" ry="10.01"/>
		</g>
		<g id="XMLID_1379_">
			
				<ellipse transform="matrix(0.1814 -0.9834 0.9834 0.1814 77.8129 512.9773)" class="st3" cx="347.05" cy="209.75" rx="6.58" ry="6.58"/>
		</g>
		<g id="XMLID_1376_">
			
				<ellipse transform="matrix(0.8237 -0.5671 0.5671 0.8237 -54.4366 228.1103)" class="st3" cx="339.58" cy="201.59" rx="6.09" ry="6.09"/>
		</g>
	</g>
	<g id="XMLID_1257_">
		<g id="XMLID_1369_">
			<path class="st3" d="M347.39,287.1c0,0,13.64,10.5,9.06,27.56l-2.12-9.79c0,0,2.88,13.69-7.04,21.9c0,0,3.59-7.53,3.46-10.83
				c0,0-5.72,12.99-21.97,12.18c0,0,9.02-6.33,12.4-11.81c0,0-7.5,4.75-12.54,4.66c0,0,12.67-3.98,16.26-17.67l-4.24,2.76
				C340.67,306.08,349.45,297.01,347.39,287.1z"/>
		</g>
		<g id="XMLID_1366_">
			<path class="st3" d="M347.39,287.1c0,0,16.21-5.78,28.07,7.32l-9.37-3.52c0,0,13.07,5,14.6,17.78c0,0-4.39-7.09-7.23-8.77
				c0,0,7.82,11.84-1.66,25.06c0,0-0.44-11.01-3.21-16.82c0,0-0.07,8.87-2.87,13.06c0,0,3.52-12.81-6.04-23.24l0.02,5.06
				C359.7,303.03,356.84,290.74,347.39,287.1z"/>
		</g>
		<g id="XMLID_1363_">
			<path class="st3" d="M347.43,286.29c0,0,3.81-14.54,19.1-16.65l-7.15,5.03c0,0,10.04-6.97,20.02-1.78c0,0-7.28-0.33-9.89,0.9
				c0,0,12.39,0.19,17.27,13.54c0,0-8.16-5.11-13.71-5.96c0,0,6.37,4.42,8.01,8.5c0,0-7.51-8.85-19.74-7.08l3.66,2.47
				C364.98,285.25,354.71,281.26,347.43,286.29z"/>
		</g>
		<g id="XMLID_1360_">
			<path class="st3" d="M344.7,283.7c0,0-9.49-14.36-26.84-11.02l9.61,2.82c0,0-13.45-3.86-22.35,5.44c0,0,7.77-3.03,11.05-2.67
				c0,0-13.36,4.77-13.73,21.03c0,0,6.97-8.54,12.67-11.51c0,0-5.28,7.13-5.55,12.17c0,0,4.88-12.35,18.79-14.95l-3.05,4.03
				C325.29,289.04,334.96,280.93,344.7,283.7z"/>
		</g>
		<g id="XMLID_1357_">
			<path class="st3" d="M344.7,283.7c0,0,6.93-15.75-5.28-28.53l2.84,9.6c0,0-4.04-13.39-16.68-15.84c0,0,6.76,4.89,8.23,7.84
				c0,0-11.25-8.65-25.12-0.15c0,0,10.95,1.23,16.54,4.41c0,0-8.85-0.57-13.23,1.93c0,0,13.03-2.59,22.75,7.7l-5.04-0.39
				C329.69,270.27,341.75,274.02,344.7,283.7z"/>
		</g>
		<g id="XMLID_1354_">
			<path class="st3" d="M345.51,283.72c0,0,14.78-2.75,17.98-17.85l-5.53,6.77c0,0,7.67-9.51,3.22-19.84c0,0-0.2,7.28-1.6,9.8
				c0,0,0.7-12.37-12.26-18.2c0,0,4.51,8.51,4.96,14.11c0,0-3.95-6.67-7.9-8.6c0,0,8.28,8.12,5.64,20.2l-2.2-3.83
				C347.81,266.29,351.05,276.82,345.51,283.72z"/>
		</g>
		<g id="XMLID_1351_">
			<path class="st3" d="M340.62,280.7c-1.09,2.3-0.12,5.05,2.18,6.15c2.3,1.09,5.05,0.12,6.15-2.18c1.09-2.3,0.12-5.05-2.18-6.15
				C344.47,277.43,341.72,278.4,340.62,280.7z"/>
		</g>
		<g id="XMLID_1348_">
			<path class="st3" d="M344.49,287.7c-1.33,2.79-0.14,6.13,2.65,7.46c2.79,1.33,6.13,0.14,7.46-2.65c1.33-2.79,0.14-6.13-2.65-7.46
				C349.15,283.73,345.81,284.91,344.49,287.7z"/>
		</g>
		<g id="XMLID_1345_">
			<path class="st3" d="M338.2,288.78c-0.87,1.83-0.09,4.03,1.74,4.9c1.83,0.87,4.03,0.09,4.9-1.74c0.87-1.83,0.09-4.03-1.74-4.9
				S339.08,286.95,338.2,288.78z"/>
		</g>
		<g id="XMLID_1261_">
			<path class="st3" d="M335.59,283.41c-0.81,1.7-0.09,3.73,1.61,4.54c1.7,0.81,3.73,0.09,4.54-1.61s0.09-3.73-1.61-4.54
				C338.44,280.99,336.4,281.71,335.59,283.41z"/>
		</g>
		<g>
			<path class="st3" d="M295.25,331.6c12.92-75.48,60.17-128.79,60.17-128.79l-3.52-6.2c-64.61,54.34-82.7,170.09-82.7,170.09
				l22.83,4.21c-0.04-4.6,0.07-9.14,0.32-13.63c16.56-44.24,54.71-69.45,54.71-69.45l-1.01-3.86
				C324.59,294,307.22,314.08,295.25,331.6z"/>
		</g>
	</g>
	<path class="st3" d="M295.24,331.6"/>
	<path class="st3" d="M292.33,357.27"/>
</g>
<path class="st3" d="M388.13,307.64"/>
</svg>
